<?xml version="1.0" encoding="utf-8"?>
<!-- Generator: Adobe Illustrator 16.0.0, SVG Export Plug-In . SVG Version: 6.00 Build 0)  -->
<!DOCTYPE svg PUBLIC "-//W3C//DTD SVG 1.1//EN" "http://www.w3.org/Graphics/SVG/1.1/DTD/svg11.dtd">
<svg version="1.1" id="Layer_1" xmlns="http://www.w3.org/2000/svg" xmlns:xlink="http://www.w3.org/1999/xlink" x="0px" y="0px"
	 width="64px" height="64px" viewBox="0 0 64 64" enable-background="new 0 0 64 64" xml:space="preserve">
<path id="OREZ_x5B_A_x5D_.Out" fill="#191919" d="M9.183,31.996c0-12.6,10.215-22.814,22.815-22.814
	c12.604,0,22.823,10.214,22.823,22.814c0,3.938-3.189,7.127-7.127,7.127c-3.935,0-7.123-3.189-7.123-7.127
	c0-4.731-3.838-8.564-8.573-8.564c-4.73,0-8.568,3.833-8.568,8.564c0,3.938-3.189,7.127-7.124,7.127
	C12.368,39.123,9.183,35.934,9.183,31.996z M0,32C0,14.326,14.327,0,32.003,0C49.674,0,64,14.326,64,32
	c0,17.671-14.326,32-31.997,32C14.327,64,0,49.671,0,32z M48.637,54.752c-0.308,0.045-0.623,0.065-0.942,0.065H16.306
	c-0.319,0-0.634-0.021-0.939-0.065c4.663,3.418,10.413,5.435,16.636,5.435C38.224,60.187,43.975,58.172,48.637,54.752z
	 M9.249,48.634c-0.045-0.309-0.066-0.624-0.066-0.943c0-3.934,3.186-7.122,7.123-7.122h31.389c3.938,0,7.127,3.188,7.127,7.122
	c0,0.319-0.021,0.635-0.066,0.943c3.419-4.662,5.433-10.412,5.433-16.634c0-15.567-12.618-28.187-28.185-28.187
	c-15.568,0-28.19,12.62-28.19,28.187C3.813,38.222,5.827,43.972,9.249,48.634z"/>
</svg>
