<?xml version="1.0" encoding="utf-8"?>
<!-- Generator: Adobe Illustrator 16.0.0, SVG Export Plug-In . SVG Version: 6.00 Build 0)  -->
<!DOCTYPE svg PUBLIC "-//W3C//DTD SVG 1.1//EN" "http://www.w3.org/Graphics/SVG/1.1/DTD/svg11.dtd">
<svg version="1.1" id="Layer_1" xmlns="http://www.w3.org/2000/svg" xmlns:xlink="http://www.w3.org/1999/xlink" x="0px" y="0px"
	 width="32px" height="32px" viewBox="0 0 32 32" enable-background="new 0 0 32 32" xml:space="preserve">
<path id="_x5B_OB_x5D__Pin_Plain" d="M30.383,21.596c0.25,0.851,0.124,1.719-0.387,2.598c-0.509,0.884-1.198,1.432-2.066,1.647
	c-0.862,0.215-1.788,0.036-2.767-0.528l-2.342-1.354c-0.983-0.565-1.595-1.276-1.841-2.123c-0.245-0.853-0.109-1.722,0.403-2.605
	c0.513-0.888,1.192-1.438,2.049-1.646c0.858-0.208,1.778-0.031,2.76,0.535l2.344,1.354C29.515,20.036,30.132,20.743,30.383,21.596z
	 M28.682,23.301c0.246-0.428,0.283-0.835,0.101-1.228c-0.179-0.387-0.57-0.759-1.173-1.107L25.248,19.6
	c-0.613-0.352-1.13-0.503-1.56-0.459c-0.429,0.041-0.769,0.276-1.014,0.705c-0.24,0.418-0.277,0.831-0.099,1.228
	c0.171,0.399,0.563,0.771,1.171,1.12l2.363,1.365c0.601,0.344,1.117,0.495,1.552,0.447C28.097,23.965,28.437,23.731,28.682,23.301z
	 M29.641,8.043c0.476,0.825,0.633,1.593,0.47,2.316c-0.167,0.721-0.633,1.307-1.407,1.75c-0.438,0.251-0.872,0.371-1.302,0.361
	c-0.429-0.016-0.841-0.151-1.25-0.418c0.104,0.513,0.041,0.962-0.188,1.344c-0.224,0.381-0.596,0.721-1.098,1.014l-0.596,0.34
	c-0.229,0.138-0.46,0.305-0.689,0.513c-0.232,0.205-0.367,0.409-0.408,0.607l-0.12,0.073l-0.979-1.689
	c0.047-0.208,0.194-0.407,0.45-0.601c0.255-0.192,0.528-0.371,0.814-0.538l0.57-0.328c0.418-0.242,0.695-0.513,0.827-0.817
	c0.13-0.302,0.104-0.611-0.079-0.929L23.971,9.85l-3.329,1.925L19.7,10.143l8.365-4.831L29.641,8.043z M28.421,9.606
	c0.125-0.302,0.094-0.621-0.095-0.951l-0.637-1.098l-2.422,1.401l0.629,1.094c0.192,0.334,0.438,0.527,0.742,0.58
	c0.303,0.057,0.643-0.02,1.018-0.24C28.039,10.172,28.295,9.911,28.421,9.606z M11.412,16.137c0,2.54,2.061,4.601,4.601,4.601
	c2.536,0,4.597-2.061,4.597-4.601c0-2.536-2.061-4.597-4.597-4.597C13.473,11.54,11.412,13.601,11.412,16.137z M19.38,3.623v2.709
	c0,1.136-0.309,2.02-0.919,2.656c-0.617,0.638-1.435,0.957-2.458,0.957c-1.02,0-1.841-0.318-2.448-0.957
	c-0.611-0.637-0.916-1.521-0.916-2.656V3.623c0-1.129,0.304-2.014,0.916-2.656C14.162,0.324,14.978,0,15.997,0
	s1.837,0.324,2.458,0.966C19.071,1.609,19.38,2.493,19.38,3.623z M17.492,6.192V3.469c0-0.695-0.13-1.22-0.387-1.569
	c-0.256-0.356-0.627-0.529-1.118-0.529c-0.497,0-0.869,0.173-1.114,0.525c-0.251,0.35-0.377,0.872-0.377,1.573v2.723
	c0,0.707,0.132,1.229,0.381,1.579C15.128,8.124,15.5,8.3,15.993,8.3c0.485,0,0.856-0.176,1.112-0.528
	C17.362,7.422,17.492,6.899,17.492,6.192z M19.119,22.333V32H16.27c-0.994,0-1.774-0.224-2.333-0.664
	c-0.558-0.444-0.841-1.103-0.841-1.982c0-0.46,0.104-0.866,0.309-1.222s0.507-0.623,0.916-0.802
	c-0.513-0.119-0.884-0.375-1.13-0.773c-0.246-0.403-0.365-0.866-0.365-1.401c0-0.925,0.265-1.626,0.794-2.107
	c0.528-0.476,1.287-0.715,2.275-0.715H19.119z M17.215,30.35v-2.571h-1.039c-0.387,0.004-0.686,0.12-0.89,0.334
	c-0.204,0.214-0.308,0.522-0.308,0.931c0,0.45,0.104,0.784,0.32,0.992c0.214,0.21,0.532,0.314,0.96,0.314H17.215z M17.215,26.454
	V23.7h-1.334c-0.396,0-0.695,0.109-0.894,0.334c-0.198,0.22-0.297,0.548-0.297,0.987c0,0.46,0.089,0.815,0.255,1.062
	c0.167,0.245,0.435,0.371,0.806,0.371H17.215z M9.86,8.921C9.159,8.512,8.489,8.393,7.846,8.554
	C7.204,8.716,6.518,9.117,5.792,9.756c-0.507,0.377-0.91,0.613-1.208,0.717c-0.292,0.1-0.581,0.068-0.858-0.089
	c-0.296-0.173-0.491-0.409-0.585-0.707C3.045,9.38,3.098,9.072,3.281,8.748c0.204-0.352,0.481-0.55,0.827-0.607
	c0.35-0.051,0.715,0.031,1.098,0.251L6.12,6.801L6.094,6.776C5.373,6.338,4.625,6.228,3.856,6.448
	c-0.77,0.218-1.385,0.73-1.847,1.526c-0.45,0.784-0.605,1.558-0.47,2.31c0.142,0.754,0.554,1.328,1.238,1.727
	c0.697,0.402,1.359,0.495,1.994,0.281c0.636-0.214,1.359-0.664,2.165-1.359c0.428-0.318,0.79-0.513,1.071-0.57
	c0.289-0.057,0.597,0.006,0.921,0.192c0.313,0.185,0.517,0.409,0.605,0.682c0.084,0.277,0.032,0.586-0.167,0.93
	c-0.255,0.44-0.56,0.701-0.916,0.79c-0.35,0.09-0.784-0.016-1.3-0.313l-0.921,1.589l0.027,0.031
	c0.863,0.523,1.693,0.627,2.493,0.309c0.805-0.314,1.438-0.868,1.899-1.668c0.458-0.799,0.627-1.558,0.495-2.281
	C11.015,9.903,10.585,9.339,9.86,8.921z M10.654,19.242c0.512,0.882,0.644,1.751,0.396,2.598c-0.246,0.849-0.862,1.554-1.839,2.119
	l-2.35,1.354c-0.976,0.564-1.892,0.747-2.76,0.539c-0.862-0.205-1.548-0.753-2.055-1.631c-0.513-0.885-0.638-1.753-0.393-2.611
	c0.246-0.862,0.858-1.573,1.836-2.137l2.346-1.354c0.984-0.566,1.904-0.739,2.762-0.529C9.457,17.805,10.141,18.358,10.654,19.242z
	 M9.439,21.085c0.179-0.393,0.142-0.806-0.098-1.229c-0.248-0.423-0.585-0.658-1.014-0.699c-0.434-0.048-0.953,0.104-1.56,0.453
	l-2.363,1.366c-0.601,0.346-0.988,0.715-1.165,1.113c-0.179,0.396-0.147,0.81,0.098,1.239c0.251,0.429,0.591,0.665,1.016,0.7
	c0.428,0.043,0.941-0.114,1.546-0.46l2.363-1.365C8.87,21.854,9.263,21.476,9.439,21.085z"/>
</svg>
